<svg xmlns="http://www.w3.org/2000/svg" width="57.64" height="54.745" viewBox="0 0 57.64 54.745">
  <path id="idea" d="M11.907,2.406,9.012,5.3l4.31,4.31,2.895-2.895Zm37.826,0-4.31,4.31,2.895,2.895,4.31-4.31ZM30.82,3.693a19.925,19.925,0,0,0-2.059.129H28.7A18.692,18.692,0,0,0,12.55,19.84,18.418,18.418,0,0,0,18.983,36.5a10.793,10.793,0,0,1,3.6,6.24V55.093h4.7a4.07,4.07,0,0,0,7.076,0h4.7V46.859h.193V44.414a11.846,11.846,0,0,1,4.117-8.427,19.712,19.712,0,0,0,5.983-13.831A18.5,18.5,0,0,0,30.82,3.693Zm0,4.117A14.3,14.3,0,0,1,45.23,22.156a15.476,15.476,0,0,1-4.76,10.872l.064.064a16.009,16.009,0,0,0-5.018,9.65H26.51a14.618,14.618,0,0,0-4.825-9.392A14.3,14.3,0,0,1,16.6,20.354,14.537,14.537,0,0,1,29.212,7.939,15.653,15.653,0,0,1,30.82,7.81ZM2,22.156v4.117H8.176V22.156Zm51.464,0v4.117H59.64V22.156ZM13.322,38.817l-4.31,4.31,2.895,2.895,4.31-4.31Zm35,0-2.895,2.895,4.31,4.31,2.895-2.895ZM26.7,46.859h8.234v4.117H26.7Z" transform="translate(-2 -2.406)" fill="#fff"/>
</svg>
