<svg xmlns="http://www.w3.org/2000/svg" width="21" height="21" viewBox="0 0 21 21">
  <path id="linkedin" d="M22.5,4H6.5A2.5,2.5,0,0,0,4,6.5v16A2.5,2.5,0,0,0,6.5,25h16A2.5,2.5,0,0,0,25,22.5V6.5A2.5,2.5,0,0,0,22.5,4Zm-12,8v9.5h-3V12Zm-3-2.765A1.333,1.333,0,0,1,9,8a1.353,1.353,0,0,1,1.5,1.235A1.331,1.331,0,0,1,9,10.5,1.353,1.353,0,0,1,7.5,9.235ZM21.5,21.5h-3v-5a1.8,1.8,0,0,0-1.75-2.02h-.04C15.5,14.48,15,15.51,15,16.5v5H12V12h3v1.28A3.745,3.745,0,0,1,17.9,12c1.985,0,3.6,1.365,3.6,4.13Z" transform="translate(-4 -4)"/>
</svg>
